<svg id="Capa_1" enable-background="new 0 0 512 512" height="512" viewBox="0 0 512 512" width="512" xmlns="http://www.w3.org/2000/svg"><g><circle cx="369" cy="438.14" r="10"/><path d="m432.787 64.798c-2.404-1.122-5.154-1.242-7.646-.334-2.493.907-4.522 2.767-5.644 5.17-5.403 11.587-45.842 98.31-52.304 112.17-49.28-47.156-103.52-80.686-105.958-82.184-3.211-1.973-7.258-1.973-10.469 0-65.421 40.199-175.986 129.16-184.22 208.52h-56.546c-3.08 0-5.987 1.419-7.882 3.846s-2.566 5.592-1.819 8.58l18.64 74.55c7.808 31.22 35.733 53.024 67.911 53.024h237.15c5.523 0 10-4.477 10-10s-4.477-10-10-10h-55.19l4.172-16.675c12.338-49.366 56.523-83.335 106.708-83.335.557.001-4.938 0 109.502 0l-15.533 62.134c-5.577 22.301-25.524 37.876-48.509 37.876h-11.15c-5.523 0-10 4.477-10 10s4.477 10 10 10h11.15c32.178 0 60.104-21.804 67.911-53.024l18.64-74.55c.747-2.988.076-6.152-1.819-8.58s-4.803-3.846-7.882-3.846h-39.244l32.907-70.583c30.5-65.385 1.749-142.616-62.876-172.759zm-345.937 363.342c-22.984 0-42.932-15.575-48.509-37.876l-15.533-62.124h109.502c50.568 0 94.448 34.264 106.709 83.327l4.171 16.673zm231.982-104.871c-22.525 11.91-40.74 29.905-52.832 51.77v-116.899c0-5.523-4.477-10-10-10s-10 4.477-10 10v116.915c-22.466-40.588-65.506-66.915-113.69-66.915h-45.623c9.225-70.02 109.763-149.591 169.313-188.148 15.37 9.951 61.803 41.244 102.243 81.003l-27.496 58.968c-9.262 19.855-13.324 41.601-11.915 63.306zm55.594-15.013c-12.305.487-24.31 2.674-35.868 6.547.013-15.951 3.497-31.771 10.315-46.386l15.156-32.503 19.346 53.151zm1.556-97.978 26.079-55.928 19.346 53.157-26.078 55.923zm64.707 97.862h-44.142l4.946-10.607 53.166-19.358zm36.848-79.037-10.926 23.435-53.163 19.357 26.084-55.936 47.149-17.16c-1.547 10.423-4.602 20.569-9.144 30.304zm-39.34-33.94-24.183-66.448 19.188-41.151c32.004 18.656 52.641 52.44 54.517 89.575z"/></g></svg>