<svg id="Layer_1" enable-background="new 0 0 512 512" height="512" viewBox="0 0 512 512" width="512" xmlns="http://www.w3.org/2000/svg"><g><path d="m463.834 242.541c-1.738-3.755-6.193-5.388-9.953-3.656-.32.148-16.154 7.292-47.136 14.633-7.454-20.381-10.782-52.726-14.286-86.793-6.331-52.608-9.937-136.577-55.999-160.989-21.042-10.575-47.391-6.556-80.458 12.293-29.598-16.873-53.728-21.817-73.675-15.119-17.588 5.905-30.887 20.457-40.654 44.486-1.56 3.837.287 8.212 4.125 9.771 3.837 1.56 8.212-.286 9.772-4.124 8.022-19.738 18.336-31.486 31.532-35.916 16.179-5.434 38.069-.04 65.064 16.024 2.363 1.408 5.309 1.408 7.672 0 29.704-17.677 53.217-22.391 69.887-14.016 39.623 18.765 43.719 115.992 50.709 176.234-42.859 3.77-94.632 5.416-143.353 4.845h-.082c-4.104 0-7.454 3.304-7.498 7.418-.044 4.142 3.277 7.535 7.419 7.58 49.422.577 101.861-1.101 145.358-4.948 2.386 17.745 5.344 33.771 9.716 46.503-32.638 6.674-78.063 12.662-135.991 12.662s-103.354-5.988-135.991-12.662c4.372-12.732 7.33-28.758 9.716-46.504 23.37 2.029 48.407 3.464 74.544 4.271 4.114.137 7.607-3.12 7.728-7.264.127-4.14-3.125-7.599-7.265-7.727-25.656-.792-50.227-2.195-73.163-4.175 4.2-36.594 7.094-77.858 14.854-112.082.916-4.039-1.617-8.056-5.657-8.971-4.042-.917-8.057 1.616-8.972 5.657-12.309 49.947-11.724 129.458-26.537 173.543-30.982-7.341-46.816-14.485-47.136-14.633-3.756-1.741-8.21-.107-9.953 3.646-1.745 3.756-.114 8.216 3.643 9.96 87.977 41.925 321.565 41.532 408.38 0 3.751-1.74 5.379-6.192 3.64-9.947z"/><path d="m274.699 477.413c-6 6.026-12.27 11.832-18.697 17.314-42.953-36.653-69.436-79.986-84.231-110.368-11.152-22.899-17.475-41.979-20.46-52.196 16.482-1.826 55.608-5.48 104.691-5.48 4.142 0 7.5-3.357 7.5-7.499s-3.358-7.499-7.5-7.499c-66.188 0-114.712 6.566-115.195 6.632-2.077.285-3.94 1.427-5.137 3.148-1.197 1.722-1.618 3.866-1.162 5.913.167.75 2.996 13.216 10.294 32.425-22.612 3.573-48.786 18.111-62.912 62-1.228 3.816.762 7.923 4.519 9.324 14.743 5.497 27.671 7.778 38.977 7.778 21.868-.001 37.661-8.53 48.746-18.793 17.167 28.556 42.137 61.561 77.119 90.193 2.763 2.261 6.738 2.261 9.501 0 8.481-6.942 16.75-14.448 24.578-22.31 2.922-2.935 2.912-7.683-.024-10.605-2.937-2.924-7.685-2.914-10.607.023zm-176.085-57.957c10.653-27.672 28.109-42.877 51.997-45.29 4.632 10.789 9.814 21.543 15.813 32.511-16.702 17.285-39.467 21.571-67.81 12.779z"/><path d="m367.252 359.811c7.134-18.837 9.979-31.244 10.244-32.433.456-2.047.035-4.191-1.162-5.912-1.196-1.721-3.06-2.864-5.137-3.149-1.324-.183-32.983-4.477-80.947-6.064-9.958.004-10.386 14.332-.496 14.99 32.908 1.088 58.423 3.528 70.929 4.915-5.79 19.715-24.073 72.467-65.713 122.89-2.638 3.194-2.187 7.92 1.008 10.557 3.176 2.626 7.909 2.199 10.559-1.008 12.366-14.974 22.735-30.047 31.385-44.442 11.082 10.243 26.857 18.747 48.697 18.747 11.304-.001 24.237-2.281 38.978-7.778 3.756-1.401 5.746-5.508 4.519-9.324-14.119-43.854-40.266-58.403-62.864-61.989zm-21.628 46.913c6.371-11.655 11.593-22.658 15.831-32.551 23.856 2.434 41.289 17.636 51.934 45.284-28.322 8.788-51.069 4.513-67.765-12.733z"/><path d="m256.005 345.242c-4.142 0-7.5 3.358-7.5 7.5.343 9.928 14.658 9.926 15 0 0-4.142-3.357-7.5-7.5-7.5z"/><path d="m222.005 345.242c-4.142 0-7.5 3.358-7.5 7.5.343 9.928 14.658 9.926 15 0 0-4.142-3.357-7.5-7.5-7.5z"/><path d="m180.505 354.753c0 4.142 3.358 7.5 7.5 7.5 9.928-.343 9.926-14.658 0-15-4.142 0-7.5 3.358-7.5 7.5z"/><path d="m290.005 360.242c4.142 0 7.5-3.358 7.5-7.5-.343-9.928-14.658-9.926-15 0 0 4.143 3.358 7.5 7.5 7.5z"/><path d="m255.995 411.235c-4.142 0-7.5 3.358-7.5 7.5.343 9.928 14.658 9.926 15 0 0-4.142-3.358-7.5-7.5-7.5z"/><path d="m221.995 411.235c-4.142 0-7.5 3.358-7.5 7.5.343 9.928 14.658 9.926 15 0 0-4.142-3.358-7.5-7.5-7.5z"/><path d="m297.495 418.735c0-4.142-3.358-7.5-7.5-7.5-9.928.343-9.926 14.658 0 15 4.142 0 7.5-3.358 7.5-7.5z"/><path d="m331.505 354.753c0-4.142-3.358-7.5-7.5-7.5-9.928.343-9.926 14.658 0 15 4.143 0 7.5-3.358 7.5-7.5z"/><path d="m238.505 378.239c-4.142 0-7.5 3.358-7.5 7.5.343 9.928 14.658 9.926 15 0 0-4.143-3.357-7.5-7.5-7.5z"/><path d="m197.005 387.738c0 4.142 3.358 7.5 7.5 7.5 9.928-.343 9.926-14.658 0-15-4.142 0-7.5 3.358-7.5 7.5z"/><path d="m273.505 393.239c4.142 0 7.5-3.358 7.5-7.5-.343-9.928-14.658-9.926-15 0 0 4.142 3.358 7.5 7.5 7.5z"/><path d="m238.505 439.231c-4.142 0-7.5 3.358-7.5 7.5.343 9.928 14.658 9.926 15 0 0-4.142-3.357-7.5-7.5-7.5z"/><path d="m273.505 454.231c4.142 0 7.5-3.358 7.5-7.5-.343-9.928-14.658-9.926-15 0 0 4.143 3.358 7.5 7.5 7.5z"/><path d="m314.995 387.738c0-4.142-3.358-7.5-7.5-7.5-9.928.343-9.926 14.658 0 15 4.142 0 7.5-3.358 7.5-7.5z"/></g></svg>