<?xml version="1.0" encoding="UTF-8"?>
<svg width="162px" height="182px" viewBox="0 0 162 182" version="1.1" xmlns="http://www.w3.org/2000/svg">
    <!-- Generator: Sketch 40.1 (33804) - http://www.bohemiancoding.com/sketch -->
    <title>Group 3</title>
    <desc>Created with Sketch.</desc>
    <defs></defs>
    <g id="Hauptansicht-Fertig" stroke="none" stroke-width="1" fill="none" fill-rule="evenodd">
        <g id="Empty-states" transform="translate(-560.000000, -288.000000)">
            <g id="Group-3" transform="translate(560.000000, 288.000000)">
                <path d="M145.203275,37.2874685 C143.308907,41.2972132 140.688365,44.8333658 137.025921,47.3907622 C134.121224,49.411421 130.490353,50.8953419 125.59657,51.4636523 C125.786007,49.7902944 125.912298,48.0853637 125.912298,46.3488601 L125.912298,21.3116352 L149.307738,21.3116352 C148.897291,25.7002535 147.823816,31.8885207 145.203275,37.2874685 L145.203275,37.2874685 L145.203275,37.2874685 L145.203275,37.2874685 Z M24.9425066,47.3907622 C19.4804132,43.6020268 16.2599883,37.3821867 14.4603391,31.0992009 C13.4500098,27.5630482 12.9132723,24.090041 12.6606899,21.3116352 L36.0561294,21.3116352 L36.0561294,46.3488601 C36.0561294,48.0853637 36.1508477,49.7902944 36.3718575,51.4636523 C31.4780743,50.9269148 27.8787759,49.411421 24.9425066,47.3907622 L24.9425066,47.3907622 L24.9425066,47.3907622 L24.9425066,47.3907622 Z M161.968428,14.776067 L161.684272,8.84038202 L125.912298,8.84038202 L125.912298,0 L36.0561294,0 L36.0561294,8.84038202 L0.315727917,8.84038202 L0.0315727661,14.7444943 C0.0315727661,14.8392127 0,15.4390957 0,16.4494251 C0.0315727661,20.6486065 0.378873492,31.730657 5.52523876,42.6232705 C8.11420776,48.0537908 11.9976613,53.515884 17.8070551,57.5887741 C23.4585852,61.566946 30.8466186,64.029624 39.7501461,64.1559152 C46.6330148,80.1317484 62.5141298,91.2769442 81.0157864,91.2769442 C99.4858702,91.2769442 115.366985,80.1001755 122.281427,64.1559152 C131.153381,64.0611969 138.572988,61.566946 144.224518,57.5887741 C152.938609,51.4320794 157.264081,42.4022607 159.505749,34.5090628 C161.747418,26.5842915 162,19.5751316 162,16.4494251 C162,15.4706685 161.968428,14.8707854 161.968428,14.776067 L161.968428,14.776067 L161.968428,14.776067 L161.968428,14.776067 Z M93.2344572,90.0116936 C89.2878583,90.8957321 85.1833952,91.3377509 80.9842136,91.3377509 C76.690314,91.3377509 72.4911323,90.8325863 68.4498151,89.9485483 L68.4498151,122.6603 C68.2603782,136.331319 57.1467549,147.381797 43.3810174,147.381797 L41.8023778,147.381797 L41.8023778,162.22101 L119.818749,162.22101 L119.818749,147.381797 L118.271682,147.381797 C104.474372,147.381797 93.2344572,136.173456 93.2344572,122.344572 L93.2344572,90.0116936 Z" id="Shape" fill="#FFE082"></path>
            </g>
        </g>
    </g>
</svg>
