<?xml version="1.0" encoding="UTF-8"?>
<svg width="162px" height="182px" viewBox="0 0 162 182" version="1.1" xmlns="http://www.w3.org/2000/svg">
    <!-- Generator: Sketch 40.1 (33804) - http://www.bohemiancoding.com/sketch -->
    <title>Group 3</title>
    <desc>Created with Sketch.</desc>
    <defs></defs>
    <g id="Hauptansicht-Fertig" stroke="none" stroke-width="1" fill="none" fill-rule="evenodd">
        <g id="Empty-states" transform="translate(-560.000000, -288.000000)">
            <g id="Group-3" transform="translate(560.000000, 288.000000)">
                <path d="M145.203275,37.2874685 C143.308907,41.2972132 140.688365,44.8333658 137.025921,47.3907622 C134.121224,49.411421 130.490353,50.8953419 125.59657,51.4636523 C125.786007,49.7902944 125.912298,48.0853637 125.912298,46.3488601 L125.912298,21.3116352 L149.307738,21.3116352 C148.897291,25.7002535 147.823816,31.8885207 145.203275,37.2874685 L145.203275,37.2874685 L145.203275,37.2874685 L145.203275,37.2874685 Z M24.9425066,47.3907622 C19.4804132,43.6020268 16.2599883,37.3821867 14.4603391,31.0992009 C13.4500098,27.5630482 12.9132723,24.090041 12.6606899,21.3116352 L36.0561294,21.3116352 L36.0561294,46.3488601 C36.0561294,48.0853637 36.1508477,49.7902944 36.3718575,51.4636523 C31.4780743,50.9269148 27.8787759,49.411421 24.9425066,47.3907622 L24.9425066,47.3907622 L24.9425066,47.3907622 L24.9425066,47.3907622 Z M161.968428,14.776067 L161.684272,8.84038202 L125.912298,8.84038202 L125.912298,0 L36.0561294,0 L36.0561294,8.84038202 L0.315727917,8.84038202 L0.0315727661,14.7444943 C0.0315727661,14.8392127 0,15.4390957 0,16.4494251 C0.0315727661,20.6486065 0.378873492,31.730657 5.52523876,42.6232705 C8.11420776,48.0537908 11.9976613,53.515884 17.8070551,57.5887741 C23.4585852,61.566946 30.8466186,64.029624 39.7501461,64.1559152 C46.6330148,80.1317484 62.5141298,91.2769442 81.0157864,91.2769442 C99.4858702,91.2769442 115.366985,80.1001755 122.281427,64.1559152 C131.153381,64.0611969 138.572988,61.566946 144.224518,57.5887741 C152.938609,51.4320794 157.264081,42.4022607 159.505749,34.5090628 C161.747418,26.5842915 162,19.5751316 162,16.4494251 C162,15.4706685 161.968428,14.8707854 161.968428,14.776067 L161.968428,14.776067 L161.968428,14.776067 L161.968428,14.776067 Z M93.2344572,90.0116936 C89.2878583,90.8957321 85.1833952,91.3377509 80.9842136,91.3377509 C76.690314,91.3377509 72.4911323,90.8325863 68.4498151,89.9485483 L68.4498151,122.6603 C68.2603782,136.331319 57.1467549,147.381797 43.3810174,147.381797 L41.8023778,147.381797 L41.8023778,162.22101 L119.818749,162.22101 L119.818749,147.381797 L118.271682,147.381797 C104.474372,147.381797 93.2344572,136.173456 93.2344572,122.344572 L93.2344572,90.0116936 Z" id="Shape" fill="#FFE082"></path>
                <ellipse id="Oval-11" fill="#E1E1E1" cx="79.5" cy="177.5" rx="40.5" ry="4.5"></ellipse>
                <ellipse id="Oval-14" fill="#A2957F" cx="66.5" cy="36" rx="3.5" ry="5"></ellipse>
                <ellipse id="Oval-14-Copy" fill="#A2957F" cx="96.5" cy="36" rx="3.5" ry="5"></ellipse>
                <path d="M69.390373,54.201196 C69.8231079,53.4882053 70.3879149,52.770385 71.0969515,52.0993915 C73.2026061,50.1067151 76.1044587,48.9332321 80.014306,49.0029179 C83.8692061,49.0716245 86.7603661,50.2372348 88.8742558,52.1278374 C89.6266383,52.8007469 90.2239312,53.5191267 90.6802647,54.231771 C90.9430257,54.6421183 91.0944613,54.9426847 91.1490213,55.0785901 C91.1490213,55.0785901 91.8041686,56.5276522 93.2066907,55.8811878 C94.6092128,55.2347235 93.9330517,53.9609253 93.9330517,53.9609253 C93.8114738,53.6580825 93.576061,53.1908397 93.2066907,52.6140036 C92.609472,51.6813424 91.8387847,50.7544166 90.8741866,49.8917076 C88.2313273,47.5280096 84.6523751,46.0851066 80.067767,46.0033943 C75.3566145,45.9194267 71.7003327,47.3979941 69.0348928,49.9204207 C68.1213081,50.7849872 67.3915784,51.7124099 66.8257674,52.6446621 C66.4767794,53.2196682 66.2544339,53.6844138 66.139815,53.9844275 C66.139815,53.9844275 65.516647,55.3095125 66.9015529,55.8811878 C68.2864589,56.4528632 68.942258,55.0550879 68.942258,55.0550879 C68.9952544,54.9163701 69.1402334,54.6133357 69.390373,54.201196 Z" id="Line" fill="#A2957F"></path>
            </g>
        </g>
    </g>
</svg>
